<?xml version="1.0" encoding="utf-8"?>
<!-- Generator: Adobe Illustrator 27.5.0, SVG Export Plug-In . SVG Version: 6.00 Build 0)  -->
<svg version="1.1" id="Layer_1" xmlns="http://www.w3.org/2000/svg" xmlns:xlink="http://www.w3.org/1999/xlink" x="0px" y="0px"
	 viewBox="0 0 260 260" style="enable-background:new 0 0 260 260;" xml:space="preserve">
<style type="text/css">
	.st0{fill:#52BECD;}
</style>
<path class="st0" d="M140.8,82.3c-20.7,8.9-36.3,22.2-44.4,29.8c-8.8,8.3-16.5,15.7-21.4,26c-9.5,20-0.4,33.3,0.6,34.7
	c-5-1.5-12.2-4.5-19.1-10.7c-7.8-7.1-13.5-12.2-10.6-21c3.9-11.7,20.8-23.5,31.5-31C91.2,100.8,113.5,87.5,140.8,82.3"/>
<path class="st0" d="M178.8,79.5c-20.7,8.9-36.2,22.2-44.3,29.9c-8.8,8.3-16.4,15.6-21.4,26c-9.5,20-0.4,33.3,0.6,34.7
	c-5-1.5-12.2-4.5-19.1-10.7c-7.8-7.1-13.5-12.2-10.6-21c3.9-11.7,20.8-23.5,31.5-31C129.2,98,151.6,84.7,178.8,79.5"/>
<path class="st0" d="M216.9,76.7c-20.7,8.9-36.2,22.2-44.3,29.9c-8.8,8.3-16.5,15.7-21.4,26c-9.5,20-0.4,33.3,0.6,34.7
	c-5-1.5-12.2-4.5-19.1-10.7c-7.8-7.1-13.5-12.2-10.6-21c3.9-11.7,20.8-23.5,31.5-31C167.3,95.2,189.6,81.9,216.9,76.7"/>
</svg>
